<svg xmlns="http://www.w3.org/2000/svg" version="1.1" xmlns:xlink="http://www.w3.org/1999/xlink" xmlns:svgjs="http://svgjs.dev/svgjs" width="1000" height="1000" viewBox="0 0 1000 1000"><rect width="1000" height="1000" fill="#000000"></rect><g transform="matrix(0.7,0,0,0.7,150.44259073802596,256.946968558995)"><svg viewBox="0 0 355 247" data-background-color="#ffffff" preserveAspectRatio="xMidYMid meet" height="695" width="1000" xmlns="http://www.w3.org/2000/svg" xmlns:xlink="http://www.w3.org/1999/xlink"><defs></defs><g id="tight-bounds" transform="matrix(1,0,0,1,-0.22445673142746614,-0.09999999999999432)"><svg viewBox="0 0 355.44891165172857 247.2" height="247.2" width="355.44891165172857"><g><svg viewBox="0 0 355.44891165172857 247.2" height="247.2" width="355.44891165172857"><g><svg viewBox="0 0 355.44891165172857 247.2" height="247.2" width="355.44891165172857"><g><svg viewBox="0 0 355.44891165172857 247.2" height="247.2" width="355.44891165172857"><g><svg viewBox="0 0 355.44891165172857 247.2" height="247.2" width="355.44891165172857"><g transform="matrix(1,0,0,1,0,0)"><svg width="355.44891165172857" viewBox="12.549996376037598 -35.29999923706055 112.30000305175781 74.3499984741211" height="247.2" data-palette-color="#0074d9"><svg></svg><svg></svg><g class="undefined-text-0" data-fill-palette-color="primary" id="text-0"><path d="M38.25-34.55v23.25c0 2.333-0.49 4.407-1.47 6.22-0.987 1.82-2.453 3.247-4.4 4.28-1.953 1.033-4.297 1.55-7.03 1.55v0c-4.133 0-7.3-1.093-9.5-3.28-2.2-2.18-3.3-5.103-3.3-8.77v0-23.25h6.6v22.9c0 2.433 0.51 4.25 1.53 5.45 1.013 1.2 2.57 1.8 4.67 1.8v0c2.133 0 3.71-0.6 4.73-1.8 1.013-1.2 1.52-3.017 1.52-5.45v0-22.9zM59.05-35.3c2.1 0 3.933 0.3 5.5 0.9 1.567 0.6 3.1 1.517 4.6 2.75v0l-3.35 3.9c-2.033-1.633-4.167-2.45-6.4-2.45v0c-2.567 0-4.623 1.033-6.17 3.1-1.553 2.067-2.33 5.317-2.33 9.75v0c0 4.333 0.767 7.55 2.3 9.65 1.533 2.1 3.6 3.15 6.2 3.15v0c1.367 0 2.583-0.243 3.65-0.73 1.067-0.48 2.2-1.17 3.4-2.07v0l3.1 3.9c-1.167 1.2-2.64 2.2-4.42 3-1.787 0.8-3.78 1.2-5.98 1.2v0c-3 0-5.65-0.7-7.95-2.1-2.3-1.4-4.083-3.46-5.35-6.18-1.267-2.713-1.9-5.987-1.9-9.82v0c0-3.767 0.66-7 1.98-9.7 1.313-2.7 3.113-4.75 5.4-6.15 2.28-1.4 4.853-2.1 7.72-2.1zM74.25-34.55h6.6v29.15h13.85l-0.75 5.4h-19.7zM124.85 0h-7l-2.15-8h-11.45l-2.15 8h-6.85l10.75-34.55h8.15zM109.95-29.5l-4.4 16.5h8.8z" data-fill-palette-color="primary" fill="#ffffff" opacity="1"></path><path d="M45.13 4.5c5.367 0 9.66 1.217 12.88 3.65 3.213 2.433 4.82 6.917 4.82 13.45v0c0 6.4-1.583 10.907-4.75 13.52-3.167 2.62-7.183 3.93-12.05 3.93v0h-9.4v-34.55zM46.28 9.45h-3.05v24.65h3.25c2.933 0 5.233-0.91 6.9-2.73 1.667-1.813 2.5-5.07 2.5-9.77v0c0-3.267-0.423-5.793-1.27-7.58-0.853-1.78-1.97-2.987-3.35-3.62-1.387-0.633-3.047-0.95-4.98-0.95zM99.08 4.5l2.7 34.55h-6.45l-0.9-14.45c-0.3-5.167-0.45-9.267-0.45-12.3v0-1.8l-6.3 24.8h-6.25l-6.7-24.85c0.067 2.2 0.1 3.867 0.1 5v0c0 3.033-0.1 6.15-0.3 9.35v0l-0.85 14.25h-6.4l2.75-34.55h8.5l6.15 24.2 5.8-24.2z" data-fill-palette-color="primary" fill="#ffffff" opacity="1"></path></g></svg></g></svg></g></svg></g></svg></g><g></g></svg></g></svg><rect width="355.44891165172857" height="247.2" fill="none" stroke="none" visibility="hidden"></rect></g></svg></g></svg>